<svg id="Layer_1" xmlns="http://www.w3.org/2000/svg" viewBox="0 0 900 600"><path fill="white" d="M50.84,50.15l43.38-27.98c1.36.63,2.92,1.48,4.7,2.57,1.77,1.1,3.79,4.12,6.04,9.1s2.55,10.57.88,16.79c1.25-.63,7.72-5.52,19.43-14.7,11.7-9.17,18.86-13.76,21.46-13.76,6.96,0,11.74,6.53,14.33,19.59,2.58,13.05,2.42,25.03-.49,35.92l-6.13,22.85-40.85,27.06-3.79-6.53c7-26.13,9.25-41.05,6.77-44.78-2.83-4.04-8.16-6.06-15.98-6.06l-39.87,148.8c-5.08,18.97-3.5,29.7,4.75,32.19l-2.75,10.26-40.07,26.59c-4.03-2.8-7.27-7.38-9.69-13.76-2.42-6.37-2.88-12.36-1.38-17.96L53.08,101.47c3.66-13.68,4.73-23.94,3.19-30.79-1.55-6.84-4.27-10.27-8.18-10.27l2.75-10.27Z"></path><path fill="white" d="M250.28,83.74l-35.37,132.01c-3.09,11.51-3.93,19.52-2.53,24.02,1.41,4.51,4.57,7.7,9.51,9.56l-2.75,10.27-43.18,28.45c-4.03-2.8-7.27-7.38-9.68-13.76-2.43-6.37-2.93-12.2-1.51-17.5l-49.15,31.25c-.49-.62-1.24-1.47-2.24-2.56-1.02-1.09-2.62-3.42-4.81-7-2.2-3.57-3.96-7.38-5.26-11.43-3.77-10.27-3.91-21.92-.41-34.99l20.5-76.49c1.34-4.97,8.7-11.36,22.09-19.13,13.38-7.76,26.4-14.14,39.05-19.12l19.41-7.93c4.75-17.73,4.8-30.09.15-37.08s-16.32-10.49-35.03-10.49l3.75-14c38.29-17.1,59.5-25.65,63.63-25.65,7.18,0,12.23,6.69,15.18,20.06,2.94,13.38,2.49,27.22-1.34,41.51ZM146.27,235.11c2,5.13,5.06,7.7,9.19,7.7s9.11-2.34,14.93-7l28.24-105.42c-6.19,2.81-10.89,5.14-14.11,7-3.22,1.87-6.89,4.83-11.02,8.87-7.66,7.46-13.94,20.37-18.86,38.72l-8.12,30.32c-2.17,8.09-2.26,14.7-.26,19.83Z"></path><path fill="white" d="M262.86,50.15l43.38-27.98c1.35.63,2.92,1.48,4.69,2.57,1.78,1.1,3.79,4.12,6.05,9.1s2.55,10.57.88,16.79c1.25-.63,7.72-5.52,19.43-14.7,11.7-9.17,18.86-13.76,21.46-13.76,6.96,0,11.73,6.53,14.33,19.59,2.58,13.05,2.42,25.03-.5,35.92l-6.12,22.85-40.85,27.06-3.79-6.53c7-26.13,9.25-41.05,6.78-44.78-2.84-4.04-8.16-6.06-15.99-6.06l-39.87,148.8c-5.08,18.97-3.5,29.7,4.75,32.19l-2.75,10.26-40.07,26.59c-4.04-2.8-7.27-7.38-9.69-13.76-2.43-6.37-2.88-12.36-1.38-17.96l41.5-154.86c3.66-13.68,4.72-23.94,3.19-30.79-1.54-6.84-4.26-10.27-8.17-10.27l2.75-10.27Z"></path><path fill="white" d="M477.16,22.17c1.08,0,3.16,2.41,6.21,7.23,3.06,4.82,5.61,11.51,7.68,20.06,2.06,8.55,2,16.87-.16,24.95l-21,78.37c-1.5,5.6-9.1,12.44-22.79,20.52-13.69,8.09-26.61,14.7-38.75,19.83-12.13,5.13-18.65,7.69-19.51,7.69-6.42,23.95-3.09,38.72,9.98,44.32,6.5,2.49,14.76,3.73,24.76,3.73l-3.63,13.53c-40.25,17.1-61.56,25.65-63.96,25.65-6.52,0-11.39-6.6-14.58-19.82-3.21-13.21-2.43-28.69,2.33-46.41l41.99-156.73c.59-2.17,15.04-9.87,43.37-23.09,28.34-13.22,44.34-19.83,48.05-19.83ZM447.57,74.18c-1.21-6.07-3.98-9.09-8.33-9.09s-9.76,2.33-16.23,6.99l-28.87,107.75c21.65-7.77,35.94-24.56,42.86-50.38l8.87-33.12c2.33-8.7,2.89-16.1,1.71-22.15Z"></path><path fill="white" d="M31.79,546.11l42.37-158.13c2.75-10.26,3.6-19.12,2.55-26.59-1.04-7.46-3.84-11.2-8.41-11.2l2.75-10.26c1.6-.3,16-9.79,43.18-28.45,1.35.63,2.97,1.48,4.86,2.57,1.88,1.09,3.95,4.12,6.2,9.09,2.26,4.98,2.51,10.73.76,17.26,1.56-.93,6.04-3.88,13.46-8.86,19.59-13.07,31.29-19.6,35.1-19.6s7.29,2.81,10.48,8.4c3.16,5.6,4.91,12.29,5.22,20.06.52-.3,5.85-3.57,16-9.8,20.3-12.43,32.19-18.66,35.67-18.66,6.96,0,11.73,6.53,14.32,19.6,2.59,13.05,2.43,25.03-.49,35.91l-37.87,141.34c-4.59,17.11-1.97,27.22,7.86,30.32l-2.75,10.27-43.18,28.45c-4.04-2.8-7.27-7.39-9.69-13.76-2.43-6.38-2.89-12.36-1.39-17.96l36.87-137.61c5.41-20.21,7.17-33.66,5.27-40.35-1.91-6.69-5.8-10.03-11.67-10.03l-10.2,2.8-39.62,147.87c-4.59,17.11-1.97,27.22,7.86,30.32l-2.75,10.27-43.18,28.45c-4.03-2.8-7.26-7.39-9.69-13.76-2.43-6.38-2.89-12.36-1.39-17.96l36.25-135.28c9.58-35.76,8.39-53.64-3.57-53.64l-12.16,2.79-39.87,148.8c-5.09,18.97-3.5,29.7,4.75,32.19l-2.75,10.26-40.06,26.59c-4.04-2.8-7.27-7.39-9.69-13.76-2.43-6.38-2.88-12.36-1.38-17.96Z"></path><path fill="white" d="M370.16,311.94c1.09,0,3.16,2.41,6.22,7.24,3.05,4.82,5.61,11.51,7.67,20.06,2.06,8.55,2.01,16.88-.16,24.96l-20.99,78.36c-1.5,5.6-9.1,12.44-22.79,20.53-13.69,8.09-26.61,14.7-38.74,19.82-12.14,5.13-18.66,7.7-19.51,7.7-6.42,23.95-3.09,38.72,9.98,44.31,6.5,2.49,14.76,3.73,24.77,3.73l-3.63,13.52c-40.25,17.1-61.56,25.66-63.96,25.66-6.52,0-11.39-6.6-14.59-19.83-3.2-13.21-2.42-28.68,2.33-46.41l41.99-156.73c.58-2.17,15.04-9.87,43.37-23.09,28.33-13.21,44.34-19.83,48.04-19.83ZM340.57,363.96c-1.21-6.06-3.98-9.09-8.33-9.09s-9.76,2.33-16.22,7l-28.87,107.75c21.65-7.77,35.94-24.56,42.85-50.37l8.88-33.12c2.33-8.71,2.89-16.1,1.7-22.16Z"></path><path fill="white" d="M495.63,218.66c5.87,0,9.65,20.37,11.35,61.1,1.69,40.75.46,68.89-3.71,84.43l-38.12,142.27c-1.92,7.15-2.44,14.15-1.55,20.99.88,6.84,3.7,10.73,8.46,11.66l-2.75,10.27c-1.62.31-16,9.79-43.18,28.45-4.17-3.11-7.45-7.7-9.85-13.76-2.4-6.07-2.89-11.74-1.47-17.03-28.77,20.53-45.11,30.79-49.03,30.79-1.52,0-3.76-2.41-6.71-7.23-2.94-4.82-5.31-11.81-7.1-20.99-1.79-9.17-1.38-18.58,1.21-28.22l44.62-166.53c.83-3.11,22.08-13.84,63.75-32.19-1.25-24.56-2.94-41.82-5.05-51.77-2.12-9.96-5.46-14.94-10.03-14.94h-10.76l3.75-13.99c28.31-15.55,47.03-23.33,56.16-23.33ZM405.33,534.92c4.13,0,9.04-2.49,14.72-7.46l43.49-162.33c.5-1.86.63-5.83.42-11.89-.23-6.06-.77-9.09-1.64-9.09-6.32,0-13.48,2.8-21.49,8.4l-4.01,2.79-38.88,145.07c-6.16,23.02-3.7,34.52,7.39,34.52Z"></path><path fill="white" d="M567.16,343.67l-44.24,165.12c-5.09,18.97-3.5,29.7,4.75,32.19l-2.75,10.26-40.06,26.59c-4.04-2.8-7.27-7.39-9.69-13.76-2.43-6.38-2.88-12.36-1.38-17.96l44.24-165.13c5.09-18.97,3.49-29.69-4.75-32.19l2.75-10.27,40.08-26.59c4.03,2.81,7.25,7.39,9.68,13.77,2.43,6.37,2.89,12.36,1.39,17.96ZM547.24,253.64l7.62-28.45c.25-.94,5.53-3.81,15.86-8.63,10.31-4.82,16.18-7.24,17.6-7.24s2.76,2.65,4.07,7.93c1.3,5.29,1.21,10.73-.29,16.32l-9.12,34.05c-.25.93-5.37,3.81-15.36,8.62-10,4.83-15.97,7.24-17.93,7.24s-3.46-2.72-4.49-8.17c-1.05-5.43-.36-12.67,2.06-21.69Z"></path><path fill="white" d="M585.63,524.89c1.99,5.13,5.06,7.69,9.19,7.69s9.11-2.34,14.92-7l38.87-145.06c5.08-18.97,3.5-29.7-4.75-32.19l2.75-10.26,40.07-26.59c4.03,2.79,7.27,7.39,9.69,13.76,2.43,6.38,2.89,12.36,1.39,17.96l-42.37,158.13c-2.75,10.27-3.61,19.12-2.56,26.58,1.04,7.46,3.85,11.2,8.42,11.2l-2.75,10.27c-1.61.31-16,9.79-43.18,28.45-4.17-3.11-7.45-7.7-9.85-13.76-2.4-6.07-2.85-11.9-1.35-17.5l-49.15,31.25c-.49-.62-1.24-1.47-2.25-2.57-1.01-1.08-2.62-3.42-4.81-7-2.2-3.57-3.94-7.38-5.25-11.43-3.78-10.26-3.91-21.92-.42-34.98l37.88-141.33c4.58-17.1,1.96-27.22-7.86-30.33l2.75-10.26,43.18-28.45c4.03,2.79,7.26,7.39,9.69,13.76,2.42,6.38,2.88,12.36,1.38,17.96l-43.37,161.87c-2.17,8.09-2.25,14.7-.25,19.83Z"></path><path fill="white" d="M662.95,546.11l42.38-158.13c2.75-10.26,3.59-19.12,2.55-26.59-1.05-7.46-3.86-11.2-8.41-11.2l2.75-10.26c1.6-.3,15.99-9.79,43.18-28.45,1.35.63,2.97,1.48,4.85,2.57,1.89,1.09,3.96,4.12,6.21,9.09,2.26,4.98,2.51,10.73.76,17.26,1.56-.93,6.04-3.88,13.47-8.86,19.59-13.07,31.29-19.6,35.1-19.6s7.29,2.81,10.46,8.4,4.91,12.29,5.23,20.06c.52-.3,5.85-3.57,16-9.8,20.3-12.43,32.18-18.66,35.66-18.66,6.96,0,11.74,6.53,14.33,19.6,2.58,13.05,2.42,25.03-.5,35.91l-37.87,141.34c-4.59,17.11-1.97,27.22,7.86,30.32l-2.75,10.27-43.18,28.45c-4.04-2.8-7.27-7.39-9.69-13.76-2.43-6.38-2.89-12.36-1.39-17.96l36.87-137.61c5.41-20.21,7.17-33.66,5.27-40.35-1.92-6.69-5.79-10.03-11.67-10.03l-10.21,2.8-39.62,147.87c-4.59,17.11-1.97,27.22,7.86,30.32l-2.75,10.27-43.18,28.45c-4.03-2.8-7.27-7.39-9.69-13.76-2.43-6.38-2.89-12.36-1.39-17.96l36.25-135.28c9.59-35.76,8.39-53.64-3.57-53.64l-12.16,2.79-39.87,148.8c-5.09,18.97-3.51,29.7,4.75,32.19l-2.75,10.26-40.07,26.59c-4.04-2.8-7.27-7.39-9.69-13.76-2.43-6.38-2.88-12.36-1.38-17.96Z"></path></svg>
